<?xml version="1.0" standalone="no"?>
<!DOCTYPE svg PUBLIC "-//W3C//DTD SVG 20010904//EN"
 "http://www.w3.org/TR/2001/REC-SVG-20010904/DTD/svg10.dtd">
<svg version="1.0" xmlns="http://www.w3.org/2000/svg"
 width="1408.000000pt" height="768.000000pt" viewBox="0 0 1408.000000 768.000000"
 preserveAspectRatio="xMidYMid meet">

<g transform="translate(0.000000,768.000000) scale(0.100000,-0.100000)"
fill="#000000" stroke="none">
<path d="M6870 6609 c-776 -46 -1482 -406 -1985 -1014 -187 -226 -361 -536
-466 -828 -102 -283 -149 -539 -156 -853 -9 -369 34 -650 153 -998 51 -148
199 -442 298 -590 391 -588 983 -1011 1642 -1175 256 -64 426 -84 699 -84 556
0 1053 152 1530 468 592 393 1035 1045 1179 1733 44 213 51 292 50 587 0 240
-3 299 -22 415 -127 773 -573 1463 -1222 1889 -126 83 -372 212 -491 260 -188
74 -435 140 -622 166 -100 14 -156 18 -392 29 -38 1 -126 -1 -195 -5z m515
-74 c371 -47 704 -159 1019 -343 711 -413 1204 -1132 1327 -1935 130 -848
-139 -1684 -741 -2301 -226 -232 -456 -402 -729 -540 -770 -389 -1649 -393
-2420 -10 -526 260 -984 717 -1238 1235 -157 321 -235 588 -273 947 -18 160
-8 500 19 667 106 653 440 1244 940 1662 430 359 930 573 1456 623 61 5 128
12 150 14 77 8 371 -4 490 -19z"/>
<path d="M6490 6400 c-47 -15 -127 -38 -179 -49 -115 -26 -287 -93 -443 -171
-358 -181 -644 -416 -900 -740 -212 -268 -411 -679 -453 -936 -9 -54 -25 -121
-35 -149 -41 -115 -34 -214 22 -301 l30 -48 24 29 c60 74 69 212 20 315 -31
67 -32 88 -4 204 l21 91 12 -70 c14 -80 39 -135 86 -185 l33 -35 19 44 c13 30
19 68 20 115 0 77 -14 114 -78 207 -24 35 -31 55 -27 75 18 97 277 540 380
651 l39 42 99 -2 c72 -1 109 3 136 15 43 19 128 95 128 114 0 34 -158 30 -231
-6 -44 -21 -43 -21 33 55 72 72 80 77 110 71 198 -35 242 -32 321 20 32 21 36
28 26 40 -40 49 -162 72 -233 45 -16 -7 -31 -10 -33 -7 -14 13 310 229 365
243 13 3 40 -1 60 -10 20 -8 64 -27 97 -41 41 -17 78 -26 118 -26 63 0 144 17
153 32 9 13 -42 65 -94 95 -32 19 -63 27 -115 31 l-71 5 55 24 c29 14 76 33
102 43 l49 19 39 -40 c52 -53 112 -79 188 -80 82 -2 92 9 48 53 -52 52 -101
72 -180 72 -59 0 -65 2 -44 12 30 16 178 54 210 54 14 0 55 -11 92 -25 112
-43 252 -28 330 33 l26 20 -30 21 c-97 69 -198 78 -341 31z"/>
<path d="M7002 6414 c-13 -9 -22 -25 -22 -42 0 -33 8 -45 38 -61 23 -12 58 -1
74 23 14 20 8 63 -9 77 -15 11 -16 11 -5 -1 15 -18 16 -62 0 -78 -19 -19 -48
-15 -42 6 5 14 4 14 -4 3 -16 -22 -44 5 -40 38 2 20 12 29 38 38 22 8 28 12
15 12 -11 1 -31 -6 -43 -15z"/>
<path d="M7325 6410 c-27 -11 -61 -29 -75 -39 -31 -25 -20 -39 60 -75 78 -35
171 -37 256 -5 90 33 115 34 215 5 126 -36 134 -43 53 -43 -83 0 -127 -17
-176 -69 -46 -46 -38 -54 52 -54 54 0 74 5 117 30 29 17 62 43 74 59 25 34 28
33 154 -20 l80 -34 -72 -7 c-40 -4 -87 -15 -104 -23 -34 -18 -109 -83 -109
-95 0 -5 23 -16 51 -25 82 -28 176 -17 268 29 91 46 111 45 213 -16 67 -40
268 -183 268 -191 0 -2 -24 2 -52 10 -74 19 -179 -5 -216 -50 -10 -12 -5 -19
25 -40 73 -49 145 -57 268 -31 l75 17 38 -26 c37 -27 122 -110 122 -121 0 -3
-17 5 -37 17 -32 18 -53 22 -130 22 -50 0 -95 -3 -99 -8 -13 -13 51 -81 107
-112 49 -27 63 -30 149 -31 52 0 100 -1 106 -2 17 -3 125 -143 204 -267 71
-110 201 -365 214 -418 5 -23 -2 -41 -37 -95 -24 -37 -49 -82 -56 -101 -20
-62 -11 -185 18 -231 8 -12 13 -11 32 5 58 53 107 182 95 254 -10 58 14 10 36
-73 24 -94 23 -143 -7 -208 -47 -104 -45 -196 6 -286 35 -62 40 -60 85 20 25
46 29 63 29 133 0 55 -7 100 -22 145 -12 36 -27 101 -33 145 -28 191 -178 533
-343 780 -187 280 -464 557 -740 739 -261 171 -569 305 -809 350 -42 8 -92 23
-110 32 -52 27 -180 29 -243 4z"/>
<path d="M5798 5959 c-21 -12 -24 -49 -6 -67 17 -17 55 -15 62 4 10 25 7 42
-10 58 -18 19 -23 19 -46 5z m42 -24 c16 -20 6 -45 -19 -45 -20 0 -37 32 -26
50 9 15 31 12 45 -5z"/>
<path d="M8237 5952 c-20 -22 -22 -43 -5 -60 18 -18 55 -15 63 6 5 14 4 15 -6
5 -18 -18 -46 -16 -53 2 -3 8 -1 15 3 15 5 0 11 -5 13 -12 3 -7 9 -8 18 -3 10
6 9 11 -5 21 -16 12 -16 14 -2 20 9 3 22 2 29 -2 10 -6 10 -4 -1 9 -17 22 -34
21 -54 -1z"/>
<path d="M6886 5872 c-8 -14 -46 -391 -46 -463 0 -85 15 -123 78 -197 60 -69
72 -103 72 -197 0 -68 2 -74 28 -90 15 -10 38 -28 52 -41 l25 -23 -3 108 c-5
142 6 177 74 250 64 69 74 98 74 201 0 82 -36 435 -45 451 -19 30 -25 -24 -25
-225 0 -177 -3 -226 -14 -235 -10 -8 -16 -8 -24 1 -5 7 -15 114 -21 237 -6
123 -13 226 -15 228 -3 3 -9 2 -15 -2 -7 -4 -11 -82 -11 -229 0 -193 -2 -225
-16 -237 -14 -11 -18 -10 -30 6 -11 15 -14 66 -14 236 0 149 -4 220 -11 225
-6 3 -15 1 -19 -5 -4 -7 -10 -112 -14 -234 -3 -121 -10 -225 -16 -231 -6 -6
-15 -4 -25 4 -13 11 -15 47 -15 241 0 207 -5 252 -24 221z"/>
<path d="M6726 5829 c-163 -47 -319 -140 -447 -268 -173 -172 -269 -370 -300
-619 -38 -303 109 -673 346 -867 l41 -33 95 13 c52 7 124 16 160 20 l66 6 -19
54 c-16 41 -30 60 -67 86 -172 122 -274 266 -322 459 -61 241 29 537 216 709
56 52 168 124 226 147 24 9 47 20 51 23 6 5 38 236 38 275 0 19 2 19 -84 -5z"/>
<path d="M7270 5830 c0 -24 18 -198 26 -247 4 -26 11 -34 42 -43 48 -16 137
-65 185 -103 21 -16 39 -28 41 -26 1 2 15 25 30 51 14 26 49 77 76 112 l49 64
-32 24 c-94 70 -242 143 -337 168 -25 6 -53 13 -62 16 -13 4 -18 0 -18 -16z"/>
<path d="M7915 5721 c-111 -64 -269 -270 -368 -482 -72 -151 -85 -203 -68
-272 22 -93 23 -106 17 -132 -4 -14 -17 -31 -31 -37 -19 -9 -22 -14 -15 -29 8
-14 -12 -62 -91 -218 -56 -111 -106 -201 -110 -201 -5 0 -9 9 -9 19 0 35 -80
282 -111 344 -36 70 -116 160 -136 153 -8 -3 -12 -2 -9 3 3 4 -8 18 -24 30
-28 20 -30 27 -30 84 0 104 -9 136 -39 144 -44 11 -150 -14 -235 -55 -89 -43
-201 -122 -189 -133 11 -10 122 -44 237 -74 54 -14 121 -37 148 -52 60 -33
130 -108 165 -178 23 -45 141 -396 158 -470 9 -41 42 -73 82 -81 59 -11 76 10
124 153 64 195 166 444 316 771 74 164 138 302 143 307 17 21 190 402 190 418
0 27 -58 21 -115 -12z m-880 -891 c10 -11 16 -20 13 -20 -3 0 -15 9 -28 20
-13 11 -19 20 -13 20 5 0 18 -9 28 -20z m32 -252 c-3 -8 -6 -5 -6 6 -1 11 2
17 5 13 3 -3 4 -12 1 -19z m23 -50 c0 -18 -2 -20 -9 -8 -6 8 -7 18 -5 22 9 14
14 9 14 -14z"/>
<path d="M6757 5460 c3 -11 7 -20 9 -20 2 0 4 9 4 20 0 11 -4 20 -9 20 -5 0
-7 -9 -4 -20z"/>
<path d="M5064 5386 c-18 -8 -51 -31 -74 -52 -37 -33 -40 -39 -23 -45 10 -4
45 -8 79 -8 67 -1 142 29 184 74 l23 24 -27 11 c-38 14 -125 12 -162 -4z"/>
<path d="M8858 5393 c-28 -7 -21 -28 17 -57 54 -41 98 -56 167 -56 87 0 100
11 59 47 -61 53 -110 73 -170 72 -31 -1 -64 -3 -73 -6z"/>
<path d="M7867 5219 l-77 -161 16 -81 c19 -94 15 -226 -11 -322 -29 -111 -92
-219 -182 -315 -71 -75 -149 -133 -162 -119 -2 2 -14 -27 -28 -64 -13 -38 -22
-71 -19 -74 3 -3 49 -10 103 -15 54 -4 121 -12 148 -17 59 -11 64 -9 155 80
69 68 143 172 190 267 132 267 132 620 -1 886 -22 45 -44 85 -48 89 -4 4 -42
-65 -84 -154z"/>
<path d="M6812 5220 c7 -11 17 -20 22 -20 5 0 1 9 -9 20 -10 11 -20 20 -22 20
-2 0 2 -9 9 -20z"/>
<path d="M5562 5044 c5 -127 22 -176 89 -249 39 -42 135 -103 145 -92 2 2 -2
23 -11 46 -32 93 -135 276 -123 221 2 -8 13 -30 25 -49 24 -37 23 -52 -1 -32
-11 9 -16 9 -22 0 -4 -8 -3 -9 4 -5 14 8 15 -3 3 -23 -5 -8 -14 -10 -22 -6 -9
6 -11 3 -6 -8 9 -24 -10 -21 -23 2 -12 24 -13 42 -1 22 5 -7 14 -10 20 -7 6 4
9 11 6 16 -3 4 2 10 10 14 17 6 21 36 5 36 -5 0 -10 7 -10 16 0 10 -7 14 -22
12 -18 -2 -24 2 -26 24 -5 42 13 68 44 62 14 -3 23 -1 20 5 -8 13 21 34 35 26
8 -6 7 -10 -2 -17 -10 -7 -8 -8 8 -5 13 3 26 1 29 -4 3 -5 -3 -9 -13 -9 -15 0
-14 -3 5 -16 13 -9 27 -27 32 -40 7 -16 17 -24 34 -24 40 0 49 -30 18 -57
l-26 -22 -58 62 -59 62 54 -66 c30 -37 72 -103 93 -147 22 -44 42 -81 47 -81
4 -1 7 38 7 85 0 106 -28 172 -99 236 -56 50 -143 104 -185 114 l-28 7 4 -109z"/>
<path d="M8427 5112 c-99 -55 -151 -103 -186 -173 -27 -55 -31 -72 -31 -145 0
-91 11 -113 28 -56 20 66 138 242 162 242 5 0 -11 -37 -35 -82 -47 -90 -88
-188 -81 -195 7 -7 100 43 135 72 30 26 44 53 19 39 -8 -4 -10 -3 -5 2 5 5 14
9 20 9 21 0 59 85 67 152 10 77 2 173 -14 173 -6 0 -41 -17 -79 -38z m43 -136
c0 -11 -19 -15 -25 -6 -3 5 1 10 9 10 9 0 16 -2 16 -4z"/>
<path d="M4929 5062 c16 -30 14 -42 -11 -52 -16 -6 -18 -9 -7 -9 36 -2 54 66
21 77 -11 3 -12 0 -3 -16z"/>
<path d="M9140 5065 c-6 -8 -10 -22 -7 -32 4 -14 5 -14 6 4 0 12 9 27 19 32 9
6 12 11 6 11 -6 0 -17 -7 -24 -15z"/>
<path d="M9193 5069 c9 -5 17 -18 18 -27 0 -11 2 -12 6 -4 6 15 -14 42 -31 42
-6 0 -3 -5 7 -11z"/>
<path d="M7746 4951 c-4 -5 -2 -20 3 -33 9 -21 10 -21 10 10 1 32 -3 39 -13
23z"/>
<path d="M6322 4915 c0 -16 2 -22 5 -12 2 9 2 23 0 30 -3 6 -5 -1 -5 -18z"/>
<path d="M4734 4904 c-9 -35 2 -117 20 -151 16 -31 61 -80 88 -94 14 -8 18 -3
24 37 11 75 -21 154 -86 211 -32 29 -38 28 -46 -3z"/>
<path d="M9303 4904 c-64 -50 -98 -138 -85 -217 l7 -37 38 26 c52 35 87 110
87 186 0 31 -4 59 -8 62 -4 2 -22 -6 -39 -20z"/>
<path d="M6469 4823 c56 -96 112 -232 201 -492 68 -199 80 -226 105 -239 37
-19 102 -1 114 31 32 82 121 377 121 398 0 28 -43 121 -65 139 -12 10 -15 9
-15 -5 0 -20 -100 -328 -105 -323 -2 2 -27 68 -55 146 -61 170 -103 266 -135
308 -21 28 -75 56 -191 101 -8 3 3 -24 25 -64z"/>
<path d="M6407 4783 c8 -23 33 -60 33 -50 0 11 -29 67 -35 67 -2 0 -2 -8 2
-17z"/>
<path d="M5350 4683 c-47 -8 -86 -16 -88 -18 -6 -5 39 -87 79 -146 76 -113
200 -196 327 -219 34 -6 110 -10 169 -9 l108 1 -35 30 c-138 118 -222 169
-287 175 -25 2 -52 7 -60 12 -19 10 -65 2 -57 -10 3 -5 11 -6 17 -3 9 5 9 4 1
-5 -7 -8 -18 -9 -35 -2 -13 5 -19 10 -14 11 6 0 4 4 -3 9 -10 6 -7 12 11 24
21 14 28 14 73 -2 88 -32 90 -32 19 4 l-70 35 48 -5 c66 -8 178 -48 252 -90
60 -33 161 -107 178 -129 15 -20 -5 38 -36 104 -57 121 -180 214 -316 240 -73
14 -179 11 -281 -7z m77 -9 c-3 -3 -12 -4 -19 -1 -8 3 -5 6 6 6 11 1 17 -2 13
-5z m358 -54 c3 -6 -1 -7 -9 -4 -18 7 -21 14 -7 14 6 0 13 -4 16 -10z m-20
-18 c-3 -3 -11 0 -18 7 -9 10 -8 11 6 5 10 -3 15 -9 12 -12z m-305 -117 c0 -8
-4 -15 -10 -15 -5 0 -7 7 -4 15 4 8 8 15 10 15 2 0 4 -7 4 -15z m-25 -45 c3
-5 1 -10 -4 -10 -6 0 -11 5 -11 10 0 6 2 10 4 10 3 0 8 -4 11 -10z m45 -26 c0
-2 -7 -4 -15 -4 -8 0 -15 4 -15 10 0 5 7 7 15 4 8 -4 15 -8 15 -10z"/>
<path d="M8428 4685 c-133 -34 -227 -108 -290 -230 -60 -118 -59 -125 11 -67
75 63 167 115 257 146 84 29 170 44 160 27 -4 -6 -12 -11 -17 -11 -19 0 -162
-70 -218 -107 -67 -43 -181 -134 -181 -143 0 -14 207 -11 278 4 97 20 164 57
243 136 57 56 149 191 149 217 0 30 -301 51 -392 28z m259 -11 c-3 -3 -12 -4
-19 -1 -8 3 -5 6 6 6 11 1 17 -2 13 -5z m-117 -144 c0 -8 -70 -30 -91 -29 -17
1 60 36 78 36 7 0 13 -3 13 -7z m56 -45 c1 -8 -2 -15 -7 -15 -5 0 -9 5 -9 11
0 5 -4 7 -10 4 -5 -3 -10 -1 -10 4 0 6 5 11 11 11 5 0 7 6 3 13 -5 9 -4 9 6 0
8 -7 15 -20 16 -28z m34 -50 c-7 -9 -15 -13 -17 -11 -7 7 7 26 19 26 6 0 6 -6
-2 -15z m-30 -19 c0 -11 -19 -15 -25 -6 -3 5 1 10 9 10 9 0 16 -2 16 -4z"/>
<path d="M6568 4378 c7 -27 32 -77 32 -64 0 5 -5 26 -12 47 -12 41 -30 56 -20
17z"/>
<path d="M6991 4223 c-23 -76 -41 -152 -41 -169 l0 -31 -142 -7 c-368 -18
-749 -86 -1051 -187 -110 -37 -261 -99 -255 -105 2 -1 79 15 172 36 409 94
760 136 1216 147 522 12 1042 -37 1495 -142 83 -20 165 -39 183 -44 18 -6 30
-6 27 -1 -7 11 -239 101 -345 133 -270 83 -662 148 -981 163 l-137 7 -5 43
c-5 49 -79 294 -88 294 -3 0 -25 -62 -48 -137z m99 -51 c0 -7 -4 -10 -10 -7
-5 3 -10 16 -10 28 0 18 2 19 10 7 5 -8 10 -21 10 -28z"/>
<path d="M5775 4216 c-64 -16 -110 -36 -164 -70 l-43 -27 39 -35 c21 -18 71
-51 112 -71 68 -34 82 -38 155 -38 59 0 100 7 149 23 37 13 67 27 67 31 0 13
-152 61 -240 75 -71 11 -80 14 -57 21 49 13 207 -1 266 -24 30 -11 57 -18 60
-16 11 11 -68 78 -124 105 -71 35 -150 45 -220 26z m40 -16 c-4 -6 -12 -10
-18 -9 -7 1 -25 -1 -40 -6 -15 -4 -30 -5 -34 -2 -6 6 51 25 80 26 10 1 15 -4
12 -9z"/>
<path d="M8157 4220 c-53 -14 -96 -37 -142 -78 -73 -65 -72 -72 3 -44 72 26
226 41 279 27 23 -7 14 -10 -56 -21 -90 -13 -209 -48 -237 -69 -15 -11 -8 -15
52 -36 100 -35 208 -33 289 4 58 27 165 102 165 117 0 13 -48 29 -69 23 -12
-3 -21 -1 -21 6 0 6 8 8 18 4 45 -16 -9 18 -66 41 -72 29 -160 39 -215 26z
m186 -29 c14 -14 -44 -7 -68 8 -18 11 -15 12 19 7 22 -3 44 -10 49 -15z"/>
<path d="M4467 3888 c-28 -22 -32 -63 -8 -87 26 -26 55 -27 81 -1 11 11 20 29
20 40 0 25 -34 60 -58 60 -10 0 -26 -6 -35 -12z m67 -14 c21 -20 20 -43 -1
-66 -23 -25 -50 -23 -69 7 -16 25 -16 27 6 50 27 29 42 31 64 9z"/>
<path d="M9540 3880 c-11 -11 -20 -30 -19 -42 1 -18 3 -16 10 9 10 34 43 51
74 40 21 -9 30 -56 15 -81 -12 -19 -12 -20 3 -7 22 18 22 64 -1 84 -25 23 -58
21 -82 -3z"/>
<path d="M9539 3798 c7 -10 25 -17 40 -17 l26 2 -25 4 c-14 3 -32 10 -40 16
-13 11 -13 10 -1 -5z"/>
<path d="M4501 3624 c-47 -75 -59 -142 -38 -220 9 -35 28 -82 43 -105 25 -41
27 -42 41 -23 59 76 78 205 44 294 -12 30 -30 66 -40 79 l-19 25 -31 -50z"/>
<path d="M9517 3629 c-34 -58 -50 -132 -42 -195 6 -52 57 -174 73 -174 13 0
56 80 69 130 25 89 7 187 -45 249 l-29 35 -26 -45z"/>
<path d="M6788 3555 c-4 -22 -10 -81 -14 -132 l-7 -92 32 -39 31 -40 0 -138
c-1 -77 -7 -177 -15 -224 l-13 -85 5 136 c6 132 5 139 -21 205 -59 147 -169
384 -180 385 -39 3 -172 4 -179 1 -4 -2 4 -17 18 -34 14 -16 27 -39 30 -51 3
-12 5 -149 3 -304 l-3 -282 -27 -28 c-45 -47 -38 -53 60 -53 49 0 92 3 95 6 4
4 -7 22 -23 40 -16 19 -32 48 -35 66 -3 18 -5 132 -3 252 l3 219 24 -59 c30
-72 202 -452 233 -513 31 -59 50 -71 79 -46 20 19 21 26 16 115 -3 53 -9 104
-13 115 -4 11 -4 17 1 13 4 -4 11 -24 14 -44 6 -34 11 -23 85 157 129 318 115
316 113 17 -2 -249 -3 -257 -24 -287 -13 -17 -23 -35 -23 -41 0 -6 44 -10 120
-10 81 0 120 4 120 11 0 6 -11 24 -24 40 -21 25 -25 41 -31 151 -4 68 -5 203
-3 300 l3 177 29 30 c16 17 27 33 25 36 -11 10 -106 15 -148 8 l-45 -8 -53
-125 c-29 -69 -74 -177 -99 -240 -25 -63 -49 -124 -54 -135 -6 -13 -9 26 -9
107 l-1 127 31 36 32 36 -7 102 c-10 155 -24 186 -25 55 -1 -128 -20 -150 -22
-25 -2 129 -17 150 -18 25 -1 -60 -5 -108 -10 -108 -8 0 -13 35 -24 180 -1 19
-6 -13 -11 -72 -4 -60 -12 -108 -17 -108 -4 0 -10 48 -11 108 -2 79 -5 97 -10
67z"/>
<path d="M8170 3540 c-89 -19 -163 -93 -176 -177 -16 -109 30 -167 206 -258
167 -86 198 -124 168 -203 -18 -49 -67 -77 -133 -76 -28 1 -64 8 -81 17 -42
21 -92 80 -115 134 -30 70 -44 52 -41 -53 3 -104 3 -105 106 -136 100 -30 224
-22 298 19 125 71 145 252 37 334 -19 15 -84 51 -144 82 -135 68 -175 104
-175 158 0 106 145 147 236 67 19 -17 46 -53 60 -80 13 -26 29 -48 34 -48 6 0
10 36 10 85 0 78 -2 86 -24 100 -51 34 -186 51 -266 35z"/>
<path d="M4834 3528 c-3 -5 7 -23 22 -39 l29 -30 3 -257 c4 -295 0 -330 -35
-373 -16 -19 -22 -34 -16 -40 6 -6 111 -8 264 -7 l254 3 11 93 c13 123 6 131
-45 52 -45 -70 -88 -90 -190 -90 -69 0 -82 3 -91 19 -6 12 -10 129 -10 310 l0
289 26 32 c15 17 25 32 23 34 -11 9 -240 13 -245 4z"/>
<path d="M5711 3518 c-5 -13 -36 -93 -69 -178 -199 -515 -183 -478 -221 -514
-17 -16 -28 -33 -25 -38 3 -4 45 -8 95 -8 72 0 89 3 89 15 0 8 -4 15 -10 15
-5 0 -16 12 -24 28 -12 24 -12 34 8 97 l22 70 138 0 139 0 23 -60 c29 -75 30
-107 4 -130 -11 -10 -17 -22 -14 -26 7 -12 261 -12 268 0 3 5 -9 20 -27 34
-41 31 -54 57 -175 362 -155 387 -139 355 -179 355 -25 0 -36 -5 -42 -22z m62
-313 l54 -140 -53 -3 c-29 -2 -80 -2 -112 0 l-59 3 48 130 c27 72 51 136 54
144 3 8 7 12 10 10 2 -3 28 -67 58 -144z"/>
<path d="M7593 3533 c-128 -2 -233 -6 -233 -9 0 -3 11 -20 25 -38 l25 -33 0
-294 0 -294 -25 -37 c-14 -20 -25 -40 -25 -43 0 -3 118 -4 263 -3 l262 3 14
88 c8 53 10 92 5 97 -6 6 -23 -9 -44 -37 -59 -79 -88 -93 -196 -93 -82 0 -95
2 -104 19 -5 11 -10 78 -10 150 l0 131 86 0 c86 0 87 0 119 -34 18 -19 35 -32
39 -29 10 11 7 193 -4 193 -5 0 -16 -11 -25 -23 -23 -35 -58 -47 -140 -47
l-75 0 0 140 0 140 88 0 c106 0 163 -24 201 -82 35 -55 48 -49 43 20 -6 88
-15 117 -38 117 -10 1 -124 -1 -251 -2z"/>
<path d="M8781 3378 c-35 -90 -94 -239 -130 -333 -53 -135 -74 -177 -103 -207
-21 -21 -38 -42 -38 -48 0 -6 40 -10 100 -10 55 0 100 3 100 6 0 3 -11 19 -25
36 -30 36 -30 39 -5 122 l21 67 136 -3 137 -3 23 -60 c27 -69 29 -107 8 -125
-8 -7 -15 -19 -15 -26 0 -11 26 -14 129 -14 72 0 132 4 136 9 3 5 -8 19 -25
31 -39 28 -52 54 -150 301 -177 445 -162 414 -201 417 l-35 3 -63 -163z m113
-168 c27 -69 50 -131 53 -137 4 -10 -21 -13 -106 -13 -61 0 -111 4 -111 9 0 8
18 58 77 214 14 38 29 65 33 60 3 -4 28 -64 54 -133z"/>
<path d="M4780 2590 c0 -22 6 -55 13 -73 14 -32 77 -96 116 -117 20 -10 21 -8
21 30 0 77 -42 145 -112 181 l-38 19 0 -40z"/>
<path d="M9244 2597 c-55 -37 -82 -83 -91 -157 l-6 -53 43 24 c71 40 120 117
120 187 0 34 -15 34 -66 -1z"/>
<path d="M5492 2393 l3 -138 25 0 c21 0 26 6 30 39 4 34 9 39 32 42 31 3 51
-13 73 -57 12 -23 22 -29 46 -29 31 0 31 0 15 25 -50 78 -48 69 -21 95 25 24
34 76 19 115 -12 30 -60 45 -145 45 l-81 0 4 -137z m169 76 c5 -8 9 -26 9 -41
0 -33 -24 -48 -79 -48 l-41 0 0 56 0 57 51 -5 c28 -3 55 -12 60 -19z"/>
<path d="M5792 2393 l3 -138 63 -1 c100 -3 142 5 142 27 0 17 -9 19 -81 19
l-80 0 3 38 3 37 68 3 c58 2 68 6 65 20 -3 14 -17 18 -71 20 l-67 3 0 34 0 35
73 0 c78 0 89 4 80 26 -4 11 -28 14 -104 14 l-100 0 3 -137z"/>
<path d="M6075 2505 c-49 -48 -16 -117 61 -131 57 -10 76 -22 72 -47 -3 -20
-9 -22 -58 -21 -30 1 -64 3 -75 5 -12 3 -21 -2 -23 -14 -4 -21 51 -47 100 -47
48 0 100 30 111 64 14 43 -16 76 -90 98 -63 19 -82 40 -61 65 10 12 26 14 71
9 47 -5 59 -3 64 10 9 24 -15 34 -85 34 -54 0 -67 -4 -87 -25z"/>
<path d="M6290 2510 c0 -17 7 -20 45 -20 l44 0 3 -117 3 -118 25 0 25 0 0 115
0 115 48 3 c39 3 47 6 47 23 0 18 -8 19 -120 19 -113 0 -120 -1 -120 -20z"/>
<path d="M6646 2522 c-12 -20 -116 -256 -116 -264 0 -4 10 -8 23 -8 17 0 28
10 40 35 17 35 17 35 85 35 l68 0 13 -35 c9 -27 18 -35 37 -35 13 0 24 6 24
13 -1 6 -27 68 -58 137 -51 110 -61 125 -84 128 -14 2 -29 -1 -32 -6z m63
-114 l20 -48 -49 0 c-28 0 -50 4 -50 9 0 5 9 31 20 57 23 53 29 51 59 -18z"/>
<path d="M6860 2458 c1 -95 13 -145 43 -175 29 -30 94 -41 136 -23 52 21 65
53 69 168 l4 102 -26 0 -26 0 0 -86 c0 -114 -16 -144 -76 -144 -53 0 -64 23
-64 133 l0 97 -30 0 -30 0 0 -72z"/>
<path d="M7190 2389 c0 -140 0 -140 23 -137 18 2 23 10 25 46 3 38 6 42 30 42
33 0 41 -6 76 -52 19 -25 36 -38 52 -38 30 0 30 3 -1 48 -30 44 -31 54 -6 69
45 28 29 133 -24 153 -15 6 -60 10 -101 10 l-74 0 0 -141z m167 75 c31 -42 -4
-84 -72 -84 l-45 0 0 56 0 57 52 -5 c34 -4 56 -12 65 -24z"/>
<path d="M7563 2513 c-4 -10 -30 -71 -59 -135 -29 -65 -52 -119 -51 -119 1 -1
12 -3 25 -4 18 -2 27 6 40 31 16 34 16 34 84 34 l68 0 14 -35 c12 -27 21 -35
40 -35 15 0 26 2 26 5 0 5 -33 80 -85 193 -35 75 -41 82 -67 82 -18 0 -31 -6
-35 -17z m62 -93 c14 -27 25 -52 25 -55 0 -3 -23 -5 -51 -5 -37 0 -50 3 -46
13 28 71 40 97 43 97 2 0 15 -22 29 -50z"/>
<path d="M7799 2405 c-1 -69 -2 -131 -3 -137 -1 -7 11 -14 27 -16 l27 -3 0 96
0 96 70 -88 c75 -93 93 -108 116 -99 11 4 14 32 14 141 l0 135 -31 0 -30 0 3
-85 c2 -47 0 -85 -4 -85 -7 0 -112 121 -131 152 -7 10 -22 18 -34 18 -23 0
-23 -2 -24 -125z"/>
<path d="M8096 2514 c-3 -9 -6 -17 -6 -19 0 -2 21 -5 48 -7 l47 -3 3 -117 3
-118 24 0 25 0 0 120 0 120 45 0 c38 0 45 3 45 20 0 19 -7 20 -114 20 -95 0
-115 -3 -120 -16z"/>
<path d="M8382 2394 l3 -136 103 -4 102 -5 0 26 c0 25 -1 25 -81 25 l-80 0 3
38 3 37 68 3 c58 2 68 6 65 20 -3 14 -17 18 -71 20 l-68 3 3 32 3 32 78 3 c68
2 78 5 75 20 -3 14 -18 17 -106 20 l-103 3 3 -137z"/>
<path d="M5020 2434 c-8 -22 -11 -70 -8 -119 5 -97 32 -153 101 -208 65 -53
68 -52 37 16 -31 70 -62 178 -53 187 3 3 7 1 10 -5 2 -5 26 -55 53 -110 45
-92 49 -97 56 -71 12 48 -3 144 -31 202 -19 39 -44 69 -84 100 -31 24 -59 44
-63 44 -3 0 -12 -16 -18 -36z m163 -164 c15 -28 14 -29 -4 -20 -15 8 -17 7
-13 -5 4 -8 3 -15 0 -15 -10 0 -27 51 -20 61 10 16 22 9 37 -21z m-99 -23 c3
-16 1 -25 -5 -22 -5 4 -9 18 -9 32 0 32 7 27 14 -10z"/>
<path d="M5155 2280 c3 -5 8 -10 11 -10 2 0 4 5 4 10 0 6 -5 10 -11 10 -5 0
-7 -4 -4 -10z"/>
<path d="M9014 2451 c-111 -68 -168 -190 -149 -317 l7 -47 39 84 c21 46 44 98
50 114 9 23 13 26 16 13 5 -22 -20 -112 -52 -184 -26 -59 -23 -59 42 -7 86 69
120 168 101 295 -6 37 -13 68 -17 68 -3 0 -20 -9 -37 -19z m-8 -198 c-2 -16 0
-33 5 -39 10 -12 2 -44 -10 -44 -3 0 -12 4 -20 9 -12 8 -12 16 3 55 20 53 26
58 22 19z m-96 5 c0 -9 4 -8 10 2 11 17 13 10 4 -14 -5 -13 -8 -13 -20 -1 -16
16 -18 25 -4 25 6 0 10 -6 10 -12z"/>
<path d="M8996 2193 c-6 -14 -5 -15 5 -6 7 7 10 15 7 18 -3 3 -9 -2 -12 -12z"/>
<path d="M6330 2101 c-14 -4 -31 -19 -40 -33 -13 -24 -13 -29 4 -47 10 -10 34
-23 54 -28 24 -6 38 -15 40 -27 4 -17 -1 -18 -47 -14 -51 5 -76 -6 -50 -23 8
-5 35 -9 61 -9 40 0 50 4 64 25 15 23 15 27 0 50 -9 14 -23 25 -31 25 -25 0
-65 23 -65 37 0 9 14 13 44 13 41 0 67 12 49 23 -18 10 -60 14 -83 8z"/>
<path d="M6896 2099 c-38 -10 -64 -35 -71 -68 -13 -61 34 -113 102 -113 46 0
93 46 93 91 0 58 -66 106 -124 90z m66 -46 c39 -35 11 -103 -43 -103 -30 0
-59 31 -59 64 0 48 64 73 102 39z"/>
<path d="M6470 2010 c0 -83 1 -90 20 -90 19 0 20 7 20 90 0 83 -1 90 -20 90
-19 0 -20 -7 -20 -90z"/>
<path d="M6545 2090 c-6 -10 5 -16 40 -22 18 -3 20 -12 23 -76 2 -55 6 -72 17
-72 12 0 15 16 15 75 l0 75 30 0 c20 0 30 5 30 15 0 12 -15 15 -74 15 -41 0
-78 -5 -81 -10z"/>
<path d="M6740 2010 c0 -83 1 -90 20 -90 19 0 20 7 20 90 0 83 -1 90 -20 90
-19 0 -20 -7 -20 -90z"/>
<path d="M7135 2079 c41 -130 53 -154 73 -157 17 -3 23 6 38 52 10 31 21 56
25 56 5 0 16 -25 25 -55 14 -44 22 -55 39 -55 17 0 25 14 48 83 32 98 32 99
10 95 -10 -2 -24 -27 -37 -66 l-22 -64 -23 66 c-30 86 -49 88 -75 5 -10 -33
-22 -57 -26 -52 -4 4 -15 32 -26 61 -13 38 -23 52 -37 52 -14 0 -17 -5 -12
-21z"/>
<path d="M7450 2010 l0 -90 70 0 c56 0 70 3 70 15 0 11 -12 15 -50 15 -47 0
-50 2 -50 25 0 23 4 25 45 25 33 0 45 4 45 15 0 11 -12 15 -45 15 -38 0 -45 3
-45 20 0 17 7 20 50 20 38 0 50 4 50 15 0 12 -14 15 -70 15 l-70 0 0 -90z"/>
<path d="M7640 2010 l0 -90 64 0 c45 0 69 5 80 16 20 20 20 48 1 64 -11 9 -13
16 -5 24 15 15 12 42 -6 60 -10 11 -34 16 -75 16 l-59 0 0 -90z m113 54 c15
-16 -8 -34 -44 -34 -32 0 -39 3 -39 20 0 17 7 20 38 20 21 0 41 -3 45 -6z m5
-91 c3 -21 -1 -23 -36 -23 -45 0 -52 4 -45 31 5 16 13 19 42 17 29 -2 37 -8
39 -25z"/>
<path d="M5371 2059 c-5 -13 -17 -43 -26 -67 -24 -58 -10 -71 40 -38 21 15 40
24 42 22 3 -2 -6 -22 -19 -45 -36 -62 -15 -70 61 -25 39 23 59 40 52 47 -6 6
-23 0 -47 -17 -52 -35 -58 -33 -34 14 11 21 20 44 20 50 0 16 -33 11 -60 -10
-38 -29 -41 -25 -19 27 13 31 16 50 10 56 -7 7 -13 2 -20 -14z"/>
<path d="M8680 2060 c0 -14 4 -42 9 -62 5 -21 8 -38 6 -38 -1 0 -19 7 -38 15
-39 16 -67 19 -67 8 1 -16 88 -108 96 -100 4 4 -5 21 -21 37 -31 32 -29 48 3
31 40 -21 51 -15 41 27 -13 58 -11 59 22 19 20 -25 35 -35 41 -29 6 6 -9 29
-41 63 -46 49 -51 52 -51 29z"/>
<path d="M5524 1866 c-28 -82 -17 -98 38 -54 21 17 41 28 44 26 2 -3 -5 -26
-16 -52 -28 -66 -7 -70 65 -14 61 47 57 65 -5 24 -22 -14 -42 -26 -44 -26 -3
0 2 20 11 46 8 25 12 48 8 52 -3 4 -25 -4 -47 -17 -31 -18 -40 -20 -35 -8 12
32 19 87 11 87 -5 0 -19 -29 -30 -64z"/>
<path d="M8507 1918 c-25 -20 -39 -66 -27 -89 16 -29 56 -52 79 -44 26 8 61
52 61 77 0 26 -44 68 -73 68 -13 0 -31 -6 -40 -12z m81 -60 c4 -32 -20 -52
-52 -44 -27 7 -41 35 -31 65 13 42 77 25 83 -21z"/>
<path d="M8382 1823 c-35 -30 -38 -68 -8 -97 14 -15 36 -26 48 -26 33 0 68 27
68 53 -1 21 -2 21 -21 -5 -24 -32 -49 -36 -72 -10 -27 30 -21 62 13 75 17 6
30 15 30 19 0 14 -37 8 -58 -9z"/>
<path d="M5728 1795 c-3 -5 -13 -37 -22 -69 -22 -88 -10 -98 48 -38 l37 37 -7
-57 c-5 -44 -4 -58 6 -58 19 0 110 89 98 96 -5 3 -28 -11 -50 -32 l-41 -39 7
29 c23 98 19 105 -38 61 -43 -33 -46 -32 -35 11 11 36 8 77 -3 59z"/>
<path d="M8208 1718 l-37 -21 30 -59 c16 -32 32 -58 35 -58 14 0 84 42 84 50
0 14 -6 13 -42 -6 -25 -13 -32 -14 -39 -2 -6 9 0 20 18 35 34 28 24 41 -12 17
-22 -15 -28 -15 -35 -4 -10 17 3 37 31 45 10 4 19 11 19 16 0 14 -11 11 -52
-13z"/>
<path d="M8093 1657 c-47 -23 -56 -38 -21 -34 16 1 28 -8 45 -38 12 -22 24
-44 26 -50 3 -5 8 -7 12 -2 5 4 -2 30 -15 58 -23 48 -23 52 -7 64 18 13 23 25
10 24 -5 0 -27 -10 -50 -22z"/>
<path d="M8344 1669 c-11 -18 11 -32 25 -16 9 12 8 16 -3 20 -9 4 -18 1 -22
-4z"/>
<path d="M5941 1602 l-29 -58 41 -22 c42 -23 66 -21 33 3 -10 8 -24 16 -29 18
-7 2 -3 23 11 55 25 58 26 62 12 62 -5 0 -23 -26 -39 -58z"/>
<path d="M8000 1610 c0 -6 7 -25 16 -41 21 -42 13 -46 -33 -15 -20 14 -45 26
-55 26 -15 0 -15 -6 6 -62 13 -35 28 -61 32 -58 10 6 10 12 -1 52 l-7 27 50
-27 c28 -15 54 -23 58 -19 9 8 -45 127 -58 127 -4 0 -8 -5 -8 -10z"/>
<path d="M5853 1578 c2 -7 10 -13 17 -13 7 0 15 6 18 13 2 7 -5 12 -18 12 -13
0 -20 -5 -17 -12z"/>
<path d="M6068 1544 c-27 -25 -48 -48 -48 -51 0 -3 11 -2 25 1 39 10 73 -3 79
-30 10 -37 26 -28 26 14 0 59 -12 112 -24 112 -6 0 -32 -21 -58 -46z m52 -9
c0 -32 -2 -34 -19 -23 -17 11 -18 14 -4 35 20 31 23 29 23 -12z"/>
<path d="M6204 1498 c-10 -35 -17 -64 -16 -65 8 -10 18 0 26 26 10 36 26 41
26 9 0 -13 5 -30 10 -38 8 -12 14 -10 41 15 34 32 33 35 14 -34 -3 -11 -2 -22
4 -25 5 -3 17 18 27 46 9 29 19 59 22 66 7 20 -18 14 -50 -13 -40 -34 -47 -32
-54 15 -4 22 -12 44 -20 50 -10 9 -16 -2 -30 -52z"/>
<path d="M7812 1538 c-15 -15 -16 -138 -2 -138 6 0 10 7 10 15 0 24 49 39 77
24 13 -7 25 -10 27 -8 5 5 -85 117 -94 118 -4 1 -11 -4 -18 -11z m38 -43 c14
-16 6 -35 -16 -35 -8 0 -14 10 -14 25 0 28 12 32 30 10z"/>
<path d="M6386 1439 c-9 -34 -13 -66 -9 -70 14 -14 97 -24 89 -11 -4 7 -15 12
-24 12 -27 0 -45 17 -39 34 5 12 12 14 31 6 16 -6 27 -6 31 0 6 9 -2 14 -42
26 -7 2 -10 10 -7 19 5 12 15 14 40 9 41 -8 47 11 7 20 -16 4 -35 9 -44 12
-12 3 -20 -10 -33 -57z"/>
<path d="M7648 1493 c-22 -5 -22 -11 -2 -79 9 -33 21 -54 30 -54 10 0 13 7 8
25 -7 29 11 34 42 10 30 -23 54 -18 25 5 -19 17 -21 23 -11 35 10 12 10 21 2
40 -9 20 -19 25 -44 24 -18 -1 -41 -3 -50 -6z m70 -35 c4 -23 -37 -45 -49 -27
-5 8 -9 22 -9 32 0 24 53 20 58 -5z"/>
<path d="M7568 1475 c-3 -3 -1 -26 4 -51 7 -33 7 -49 -2 -59 -28 -33 -52 -11
-65 58 -7 35 -15 44 -27 32 -9 -9 13 -88 30 -107 18 -21 51 -23 77 -4 15 11
17 21 12 66 -6 52 -17 76 -29 65z"/>
<path d="M6527 1453 c-18 -17 -6 -53 24 -68 49 -26 28 -49 -28 -31 -33 11 -29
-12 4 -25 43 -16 73 -4 73 30 0 22 -7 31 -30 41 -38 16 -33 35 9 34 33 -2 42
10 15 20 -21 8 -59 8 -67 -1z"/>
<path d="M7357 1387 c-9 -30 -17 -65 -16 -78 0 -24 0 -24 11 -3 14 30 65 39
90 17 10 -9 21 -14 24 -11 7 8 -69 127 -82 128 -6 0 -18 -24 -27 -53z m48 -7
c15 -30 15 -30 -10 -30 -27 0 -28 3 -19 38 8 29 10 28 29 -8z"/>
<path d="M6656 1373 c-33 -56 -33 -80 1 -51 21 17 53 11 77 -14 10 -10 19 -18
21 -16 2 2 -4 33 -13 71 -20 86 -38 88 -86 10z m60 -21 c-3 -2 -12 -2 -21 2
-13 5 -14 10 -4 28 l12 22 9 -23 c5 -13 6 -26 4 -29z"/>
<path d="M7238 1423 c-38 -4 -54 -23 -19 -23 20 0 31 -26 31 -77 0 -18 5 -33
11 -33 7 0 10 21 7 58 -3 53 -1 57 20 60 12 2 20 8 17 13 -4 5 -12 8 -18 7 -7
-1 -29 -3 -49 -5z"/>
<path d="M6800 1378 c0 -24 -3 -53 -6 -65 -5 -17 -2 -23 10 -23 9 0 16 8 16
20 0 28 26 25 46 -5 22 -33 35 -32 28 4 -4 16 -1 32 5 35 18 12 13 54 -8 66
-11 5 -36 10 -55 10 -36 0 -36 0 -36 -42z m80 7 c17 -20 4 -35 -31 -35 -21 0
-29 5 -29 18 0 10 3 22 7 25 11 12 40 8 53 -8z"/>
<path d="M7090 1400 c-26 -26 -15 -49 30 -64 44 -15 43 -30 -3 -34 -45 -4 -40
-22 6 -22 43 0 59 12 55 41 -2 17 -13 27 -35 34 -18 6 -35 14 -40 18 -12 13
19 27 44 20 26 -6 32 12 7 21 -27 10 -43 7 -64 -14z"/>
<path d="M6950 1345 l0 -65 51 0 c31 0 48 4 44 10 -3 6 -22 10 -41 10 -28 0
-35 4 -32 18 2 11 14 18 36 20 39 4 33 22 -9 22 -19 0 -29 5 -29 15 0 10 11
15 35 15 19 0 35 5 35 10 0 6 -20 10 -45 10 l-45 0 0 -65z"/>
</g>
</svg>
